<svg version="1.0" xmlns="http://www.w3.org/2000/svg" width="657.333" fill="#fff" height="300" viewBox="0 0 493 225"><path d="M265.1 18.1c-16.1 1.5-36.4 7.4-53.8 15.5-13.1 6.1-15.4 7.3-25.3 12.6-4.7 2.5-12.4 6.6-17.2 9l-8.6 4.5-22.9.6c-23.6.6-30.2 1.6-45.8 6.8-11 3.7-38.5 18.1-45 23.6-.5.5-3.9 3-7.5 5.5-3.6 2.6-8.5 6.5-11 8.7l-4.5 4.1 4.4-1.5C32.1 106 51.5 96.6 53.5 95c.6-.4 7.8-4.2 16.2-8.4 33.7-16.9 45-18.4 119.3-15.6 80.2 3 135.3-2.9 168.4-17.9 6.2-2.8 8.8-4.8 4.9-3.8-22.3 6.1-56.4 10.3-94.8 11.8-27.7 1-85.5.3-85.5-1.1 0-1.2 34.2-18.3 44.9-22.5C266.2 22.2 312.5 23 369 39.9c36.2 10.8 49.5 13.3 70.5 13.5 13.7 0 15.7-.2 23.5-2.7 4.7-1.5 9-3 9.7-3.4.6-.5-6.2-.8-15-.9-24.6-.1-40.3-2.8-80.2-14-37.1-10.5-47.4-12.8-64.1-14.4-11.6-1.1-36.3-1.1-48.3.1zM466.6 62.9c-6.1 4.6-9.2 6.3-14.4 7.6-3.7.9-8.9 2.7-11.7 3.9l-5 2.3 8.7 1.3c4.8.6 10.2.9 12 .5 6.7-1.5 13.7-5.3 15.7-8.5 1.8-3 3.8-11.7 2.8-12.6-.2-.2-3.9 2.2-8.1 5.5zM204 127c-5.6 2.6-9.6 6.3-12.3 11.5-1.8 3.3-2.2 6.2-2.5 16.7-.3 10.9-.1 13.8 1.7 19.7 2.6 8.4 7.5 13.3 16 15.8 10.1 2.9 22.5.5 28.5-5.5 6.8-6.7 7.1-7.8 7.1-26.7 0-14.7-.3-17.5-1.9-20.5-4.8-9-10.6-12.2-23.1-12.7-7.5-.3-9.7 0-13.5 1.7zm24 11.7c3.7 3.8 3.7 3.8 4.5 14.5 1.4 21.6-2.5 28.8-15.8 28.8-7.1 0-11.4-1.9-14.4-6.3-2.1-3.1-2.3-4.5-2.3-17.1 0-12.3.2-14.2 2.2-17.7 2.6-4.7 5.2-5.7 14.7-5.8 7.2-.1 7.4 0 11.1 3.6zM30.5 131.6c-1.4 3.1-2.5 5.9-2.5 6.3 0 .3-1.6 4.5-3.5 9.3-3.3 8.2-6.6 16.8-13 33.1-3.3 8.7-3.1 10.1 1.8 10.5 4.9.4 6-.5 8.6-7.8l2.2-6H52.8l2.3 6.2c1.2 3.5 2.8 6.6 3.3 7 2 1.4 8.6.9 9.2-.7.6-1.5-1-6.4-12.6-37.5-10.7-29.1-8.8-26-16-26h-6l-2.5 5.6zM43 149.2c1.9 5.7 4 11.4 4.7 12.8 2.9 5.6 2.3 6-9.3 6-8.1 0-10.5-.3-10.1-1.3.2-.6 2.6-7.2 5.3-14.5C36.2 145 38.7 139 39 139c.3 0 2.2 4.6 4 10.2zM75.7 126.7c-.4.3-.7 10.6-.7 22.8 0 24.3.9 29.4 5.8 34.8 8.3 8.9 27.3 10 37.6 2.3 6.7-5.2 7.9-10 8.4-35.2.5-24.8.2-25.7-6.1-25.2l-4.2.3-.5 23c-.3 14.4-.9 24-1.7 25.6-1.8 4.1-7.2 6.9-13.2 6.9-6.2 0-10.1-1.8-13.3-6.2-2.2-3.2-2.3-4-2.4-25.3-.1-12.1-.2-22.6-.3-23.3-.1-1.3-8.2-1.8-9.4-.5zM133.2 127.2c-1.8 1.8-1.5 5.9.6 7.4 1.1.9 4.8 1.3 10.5 1.4h8.7v26.9c0 29.4-.3 28.1 5.9 28.1 5 0 5.1-.5 5.1-28.9v-26.6l7.2.3c4 .2 8.6-.1 10.1-.7 2.5-1 2.8-1.5 2.5-4.8l-.3-3.8-24.5-.3c-18.3-.2-24.9.1-25.8 1zM279.3 126.7c-1 .4-1.3 7.7-1.3 31.8 0 34.8-.5 32.5 7 32.5 6.7 0 7-.4 7-8.6 0-6.4.4-8 2.6-11.4 1.5-2.2 3-4 3.5-4 .4 0 4.5 4.6 9 10.2 4.4 5.7 9 11.1 10.1 12 2.5 2.2 13 2.5 14.6.5 1.3-1.6-1.2-5.4-12.9-19.9-4.2-5.2-8.3-10.4-8.9-11.5-1.5-2.3-1.2-2.8 5.6-10.9 8.8-10.4 14.4-17.8 14.4-19 0-1.7-2.4-2.4-8.5-2.4-6.4 0-5.7-.5-18.7 16.2-5 6.5-9.5 11.5-9.9 11.2-.5-.3-.9-6.3-.9-13.4 0-10.7-.3-12.9-1.6-13.4-1.8-.7-9.3-.7-11.1.1zM340.9 127.6c-1.4 1.3-1.5 5.3-1.2 31.2.2 16.3.6 30.3.8 31 .3.7 2.3 1.2 5.4 1.2 8.3 0 8.1.3 8.1-13.1 0-6.5.4-11.9.9-11.9.9 0 11.8 12 18.4 20.2 3.8 4.7 3.9 4.8 9.7 4.8 6.4 0 9-.7 9-2.3 0-1-5.7-8.3-9.5-12.3-4-4.1-7.6-9.4-7-10.4.3-.6 1.6-1 2.9-1 1.2 0 4.1-1.6 6.4-3.6l4.2-3.6v-11c0-12.7-1.3-15.7-8.4-18.9-5.6-2.6-37.2-2.8-39.7-.3zm32.5 10.7c1.4 1 1.8 2.7 1.8 7.4 0 10.5.2 10.3-11.3 10.3H354v-19h8.8c5.7 0 9.5.5 10.6 1.3zM418.6 131.9c-1.4 3.2-3.3 7.8-4.1 10.2-.9 2.4-2.9 7.5-4.5 11.4-1.6 3.8-4.7 11.9-7 18-2.2 6-4.7 12.4-5.5 14.1-1.9 4.3-.5 5.4 6.7 5.4 5.7 0 5.8-.1 7.6-3.7 1.1-2.1 2.2-5 2.6-6.6l.6-2.7h13c12.5 0 12.9.1 13.5 2.2.4 1.3 1.6 4.2 2.8 6.5l2.1 4.3h5.7c8.2 0 8.6-.9 4.3-11.6-2-4.9-4-9.8-4.4-10.9-.5-1.1-2.1-5.2-3.5-9-1.4-3.9-3.5-9-4.5-11.5s-2.8-7.1-4-10.3c-4.1-11.7-4.1-11.7-11.9-11.7h-6.8l-2.7 5.9zm11.9 19.3c1 2.4 2.4 5.6 3.1 7.3.7 1.6 1.6 4.2 1.9 5.7l.7 2.8H420l.6-2.8c.4-1.5 1.5-4.6 2.5-6.9 1.1-2.3 1.9-4.4 1.9-4.7 0-1.5 2.1-5.6 2.8-5.6.5 0 1.7 1.9 2.7 4.2zM468 157.3c0 23 .3 31.6 1.2 32.5 1.6 1.6 11 1.6 12.6 0 1.7-1.7 1.7-60.9 0-62.6-.7-.7-3.9-1.2-7.5-1.2H468v31.3z"/></svg>